<?xml version="1.0" encoding="UTF-8" standalone="no"?>
<!DOCTYPE svg PUBLIC "-//W3C//DTD SVG 1.1//EN" "http://www.w3.org/Graphics/SVG/1.1/DTD/svg11.dtd">
<svg width="100%" height="100%" viewBox="0 0 3000 3000" version="1.1" xmlns="http://www.w3.org/2000/svg" xmlns:xlink="http://www.w3.org/1999/xlink" xml:space="preserve" xmlns:serif="http://www.serif.com/" style="fill-rule:evenodd;clip-rule:evenodd;stroke-linecap:round;stroke-linejoin:round;stroke-miterlimit:1.5;">
    <rect x="-204" y="-104" width="3564" height="3212"/>
    <g transform="matrix(1.63679,0,0,1.63679,-247.228,701.427)">
        <text x="271.294px" y="249.35px" style="font-family:'HelveticaNeueLTPro-MdEx', 'Helvetica Neue LT Pro', sans-serif;font-weight:500;font-size:288px;fill:white;">TERTÚLIA</text>
        <text x="271.294px" y="594.95px" style="font-family:'HelveticaNeueLTPro-MdEx', 'Helvetica Neue LT Pro', sans-serif;font-weight:500;font-size:288px;fill:white;">M<tspan x="597.886px 828.574px 1043.42px 1145.95px 1419.26px 1665.79px " y="594.95px 594.95px 594.95px 594.95px 594.95px 594.95px ">ATINAL</tspan></text>
        <text x="271.294px" y="940.55px" style="font-family:'HelveticaNeueLTPro-MdCn', 'Helvetica Neue LT Pro', sans-serif;font-weight:500;font-size:288px;fill:white;">E<tspan x="441.502px 686.302px 787.102px 957.31px 1122.33px 1292.54px 1452.09px 1617.12px 1771.49px " y="940.55px 940.55px 940.55px 940.55px 940.55px 940.55px 940.55px 940.55px 940.55px ">m podcast</tspan></text>
    </g>
    <path d="M196.824,1153L2803.18,1153" style="fill:none;stroke:rgb(255,0,0);stroke-width:2px;"/>
    <g transform="matrix(1,0,0,1,0,570)">
        <path d="M196.824,1153L2803.18,1153" style="fill:none;stroke:rgb(255,0,0);stroke-width:2px;"/>
    </g>
</svg>
